<svg xmlns="http://www.w3.org/2000/svg" width="76.177" height="100.782" viewBox="0 0 76.177 100.782">
  <g id="LogoS_-small" data-name="LogoS -small" transform="translate(-198.687 -134.639)">
    <g id="Group_11" data-name="Group 11" transform="translate(199.728 135.541)">
      <path id="Path_27" data-name="Path 27" d="M238.309,231.313l35-61.132-17.523-31.232-35.489-.352L203.17,170.381Z" transform="translate(-201.028 -136.688)" fill="#0c5453"/>
      <path id="Path_28" data-name="Path 28" d="M237.441,234.514l-37.288-64.881,18.106-33.724,37.8.376,18.521,33.125Zm-32.759-64.942,32.747,56.98,32.61-57.159-16.4-29.339-32.928-.327Z" transform="translate(-200.153 -135.909)" fill="#161615"/>
    </g>
    <g id="Group_12" data-name="Group 12" transform="translate(218.902 145.772)">
      <path id="Path_29" data-name="Path 29" d="M258.317,164.463l-6.559,1.187a15.268,15.268,0,0,0,.428-3.213q0-8.313-10.3-8.313-8.127,0-8.127,5.728,0,4.3,9.088,7.37,17.538,5.9,17.536,17.464a13.463,13.463,0,0,1-4.918,10.881q-4.918,4.1-13.08,4.1-18.071,0-18.071-13.727a26.183,26.183,0,0,1,.178-2.76l6.807-1.466a21.521,21.521,0,0,0-.784,5.274q0,8.872,10.371,8.872,8.3,0,8.305-6.392,0-4.75-9.944-8.348-14.364-5.167-14.365-16.521a12.732,12.732,0,0,1,4.795-10.356q4.793-3.93,12.6-3.93Q258.317,150.316,258.317,164.463Z" transform="translate(-224.314 -150.316)" fill="none"/>
    </g>
    <g id="Group_13" data-name="Group 13" transform="translate(219.976 145.878)">
      <path id="Logo" d="M259.281,164.433l-6.475,1.172a15.1,15.1,0,0,0,.423-3.172q0-8.207-10.17-8.208-8.024,0-8.024,5.655,0,4.242,8.973,7.277,17.314,5.829,17.314,17.243a13.291,13.291,0,0,1-4.857,10.743q-4.855,4.053-12.914,4.052-17.842,0-17.842-13.553a25.829,25.829,0,0,1,.176-2.725l6.721-1.448a21.3,21.3,0,0,0-.774,5.207q0,8.76,10.241,8.76,8.2,0,8.2-6.311,0-4.69-9.819-8.242-14.183-5.1-14.182-16.312a12.573,12.573,0,0,1,4.733-10.225q4.733-3.879,12.441-3.88Q259.281,150.465,259.281,164.433Z" transform="translate(-225.709 -150.465)" fill="#fff"/>
    </g>
    <g id="Group_14" data-name="Group 14" transform="translate(205.347 140.796)">
      <path id="Path_31" data-name="Path 31" d="M239.834,225.83l-31.769-54.251,15.465-28.27,32.115.316.141.248,15.685,27.53ZM209.21,171.565l30.621,52.289L270.322,171.4l-15.287-26.831-30.89-.3Z" transform="translate(-208.065 -143.309)" fill="#a3a3a3"/>
    </g>
    <g id="Group_15" data-name="Group 15" transform="translate(198.687 134.639)">
      <path id="Path_32" data-name="Path 32" d="M236.853,235.421l-38.166-66.253,18.583-34.53,38.578.384,19.015,33.927Zm-37.034-66.267,37.032,64.282,36.878-64.49-18.485-32.981-37.364-.372Z" transform="translate(-198.687 -134.639)" fill="#fff"/>
    </g>
  </g>
</svg>
