<svg xmlns="http://www.w3.org/2000/svg" width="180.569" height="74.597" viewBox="0 0 180.569 74.597">
  <g id="Button-green" transform="translate(-3.5 -1.853)">
    <rect id="Rectangle_18" data-name="Rectangle 18" width="180.569" height="74.597" transform="translate(3.5 1.853)" fill="#066"/>
    <path id="button" d="M-41.684,0l-2.133-5.449h-6.867L-52.793,0h-2.016l6.773-17.2h1.676L-39.621,0Zm-2.754-7.242-1.992-5.309q-.387-1.008-.8-2.473a22.2,22.2,0,0,1-.738,2.473L-49.98-7.242Zm12.855-5.812a4.775,4.775,0,0,1,3.932,1.729,7.587,7.587,0,0,1,1.4,4.893,7.642,7.642,0,0,1-1.412,4.916A4.755,4.755,0,0,1-31.582.234a5.558,5.558,0,0,1-2.291-.463,4.309,4.309,0,0,1-1.74-1.424h-.141L-36.164,0h-1.395V-18.234h1.945v4.43q0,1.488-.094,2.672h.094A4.618,4.618,0,0,1-31.582-13.055Zm-.281,1.629a3.4,3.4,0,0,0-2.871,1.143,6.445,6.445,0,0,0-.879,3.85,6.428,6.428,0,0,0,.9,3.873,3.432,3.432,0,0,0,2.895,1.166A3,3,0,0,0-29.145-2.7a6.716,6.716,0,0,0,.879-3.756,6.454,6.454,0,0,0-.879-3.738A3.115,3.115,0,0,0-31.863-11.426Zm20.1,4.992a7.085,7.085,0,0,1-1.582,4.9A5.572,5.572,0,0,1-17.719.234a5.789,5.789,0,0,1-3.059-.809,5.337,5.337,0,0,1-2.062-2.32,8.087,8.087,0,0,1-.727-3.539A7.074,7.074,0,0,1-22-11.326a5.554,5.554,0,0,1,4.359-1.752,5.433,5.433,0,0,1,4.283,1.793A7.055,7.055,0,0,1-11.766-6.434Zm-9.785,0a6.1,6.1,0,0,0,.984,3.75,3.417,3.417,0,0,0,2.895,1.289,3.44,3.44,0,0,0,2.9-1.283,6.065,6.065,0,0,0,.99-3.756,5.968,5.968,0,0,0-.99-3.721A3.479,3.479,0,0,0-17.7-11.426a3.424,3.424,0,0,0-2.883,1.254A6.034,6.034,0,0,0-21.551-6.434Zm15.023-6.41v8.332a3.352,3.352,0,0,0,.715,2.344,2.912,2.912,0,0,0,2.238.773A3.652,3.652,0,0,0-.627-2.5,5.557,5.557,0,0,0,.3-6.094v-6.75H2.25V0H.645L.363-1.723H.258A3.877,3.877,0,0,1-1.4-.27a5.573,5.573,0,0,1-2.42.5A4.91,4.91,0,0,1-7.33-.879,4.739,4.739,0,0,1-8.5-4.441v-8.4ZM10.523-1.371a6.355,6.355,0,0,0,1-.076,6.448,6.448,0,0,0,.762-.158V-.117a3.556,3.556,0,0,1-.932.252,7,7,0,0,1-1.107.1q-3.727,0-3.727-3.926v-7.641H4.676v-.937l1.84-.809.82-2.742H8.461v2.977h3.727v1.512H8.461v7.559a2.6,2.6,0,0,0,.551,1.781A1.917,1.917,0,0,0,10.523-1.371ZM37.453,0V-8.355a3.468,3.468,0,0,0-.656-2.3,2.538,2.538,0,0,0-2.039-.768,3.292,3.292,0,0,0-2.684,1.043,4.957,4.957,0,0,0-.867,3.211V0H29.262V-8.355a3.468,3.468,0,0,0-.656-2.3,2.554,2.554,0,0,0-2.051-.768,3.176,3.176,0,0,0-2.678,1.1,5.93,5.93,0,0,0-.85,3.592V0H21.082V-12.844h1.582l.316,1.758h.094a3.823,3.823,0,0,1,1.553-1.465,4.744,4.744,0,0,1,2.244-.527q3.012,0,3.938,2.18H30.9a4.1,4.1,0,0,1,1.664-1.594,5.163,5.163,0,0,1,2.484-.586,4.349,4.349,0,0,1,3.264,1.119A5.007,5.007,0,0,1,39.4-8.379V0ZM48.832.234A5.9,5.9,0,0,1,44.338-1.5a6.714,6.714,0,0,1-1.646-4.816,7.446,7.446,0,0,1,1.529-4.934,5.08,5.08,0,0,1,4.107-1.828,4.844,4.844,0,0,1,3.82,1.588A6.086,6.086,0,0,1,53.555-7.3v1.23H44.707A5.091,5.091,0,0,0,45.85-2.637,3.952,3.952,0,0,0,48.9-1.465,10.345,10.345,0,0,0,53-2.332V-.6a10.3,10.3,0,0,1-1.951.639A10.965,10.965,0,0,1,48.832.234ZM48.3-11.449a3.177,3.177,0,0,0-2.467,1.008,4.646,4.646,0,0,0-1.084,2.789h6.715a4.277,4.277,0,0,0-.82-2.818A2.887,2.887,0,0,0,48.3-11.449Z" transform="translate(93.5 47.744)" fill="#f6f6f6"/>
    <g id="Rectangle_20" data-name="Rectangle 20" transform="translate(8.361 6.224)" fill="none" stroke="#f6f6f6" stroke-width="1" opacity="0.44">
      <rect width="168.068" height="66.263" stroke="none"/>
      <rect x="0.5" y="0.5" width="167.068" height="65.263" fill="none"/>
    </g>
  </g>
</svg>
