<svg xmlns="http://www.w3.org/2000/svg" width="22.969" height="22.964" viewBox="0 0 22.969 22.964">
  <path id="instagram-brands" d="M11.412,37.419A5.888,5.888,0,1,0,17.3,43.307,5.878,5.878,0,0,0,11.412,37.419Zm0,9.716a3.828,3.828,0,1,1,3.828-3.828,3.835,3.835,0,0,1-3.828,3.828Zm7.5-9.956a1.373,1.373,0,1,1-1.373-1.373A1.37,1.37,0,0,1,18.914,37.179Zm3.9,1.394a6.8,6.8,0,0,0-1.855-4.812,6.841,6.841,0,0,0-4.812-1.855c-1.9-.108-7.579-.108-9.475,0a6.831,6.831,0,0,0-4.812,1.85A6.818,6.818,0,0,0,.006,38.567c-.108,1.9-.108,7.579,0,9.475a6.8,6.8,0,0,0,1.855,4.812,6.849,6.849,0,0,0,4.812,1.855c1.9.108,7.579.108,9.475,0a6.8,6.8,0,0,0,4.812-1.855,6.841,6.841,0,0,0,1.855-4.812C22.921,46.146,22.921,40.468,22.814,38.572Zm-2.449,11.5a3.875,3.875,0,0,1-2.183,2.183c-1.512.6-5.1.461-6.769.461s-5.263.133-6.769-.461A3.875,3.875,0,0,1,2.46,50.076c-.6-1.512-.461-5.1-.461-6.769s-.133-5.263.461-6.769a3.875,3.875,0,0,1,2.183-2.183c1.512-.6,5.1-.461,6.769-.461s5.263-.133,6.769.461a3.875,3.875,0,0,1,2.183,2.183c.6,1.512.461,5.1.461,6.769S20.964,48.57,20.364,50.076Z" transform="translate(0.075 -31.825)" fill="#f6f6f6"/>
</svg>
