<svg xmlns="http://www.w3.org/2000/svg" width="155" height="155" viewBox="0 0 155 155">
  <g id="Knapp_Project" data-name="Knapp Project" transform="translate(-0.024 -0.141)">
    <circle id="Ellipse_17" data-name="Ellipse 17" cx="77.5" cy="77.5" r="77.5" transform="translate(0.024 0.141)" fill="#066"/>
    <path id="Path_47" data-name="Path 47" d="M-10.818-15.268-16.375,0h-2.707L-24.64-15.268h2.174l4.789,13.433,4.789-13.433Zm4.235,1.9H-8.757v-2h2.174ZM-6.706,0H-8.634V-11.454h1.928ZM6.7-5.527H-1.743a4.882,4.882,0,0,0,.318,1.841A3.458,3.458,0,0,0-.554-2.4a3.467,3.467,0,0,0,1.266.738,5.05,5.05,0,0,0,1.615.246,6.383,6.383,0,0,0,2.353-.467A5.8,5.8,0,0,0,6.368-2.8h.1V-.7A15.905,15.905,0,0,1,4.481-.01,8.071,8.071,0,0,1,2.348.267,6.144,6.144,0,0,1-2.1-1.277,5.808,5.808,0,0,1-3.7-5.66a6.3,6.3,0,0,1,1.533-4.46,5.248,5.248,0,0,1,4.035-1.651A4.634,4.634,0,0,1,5.44-10.418,5.445,5.445,0,0,1,6.7-6.573ZM4.819-7a3.408,3.408,0,0,0-.764-2.348,2.943,2.943,0,0,0-2.292-.831A3.343,3.343,0,0,0-.7-9.27,3.544,3.544,0,0,0-1.743-7Zm19.206-4.45L21.041,0H19.257L16.314-8.829,13.392,0H11.618L8.6-11.454h2.01l2.1,8.87,2.861-8.87h1.589L20.1-2.584l1.989-8.87ZM-24.9,19.135a7.738,7.738,0,0,1-.4,2.548,5.57,5.57,0,0,1-1.128,1.953,4.726,4.726,0,0,1-1.594,1.174,4.659,4.659,0,0,1-1.943.415,6.206,6.206,0,0,1-1.615-.195,6.7,6.7,0,0,1-1.471-.6v4.8h-1.928V13.546h1.928v1.2a7.485,7.485,0,0,1,1.728-1.082,4.886,4.886,0,0,1,2.046-.436,3.778,3.778,0,0,1,3.225,1.564A7.189,7.189,0,0,1-24.9,19.135Zm-1.989.051a5.487,5.487,0,0,0-.708-3.1,2.46,2.46,0,0,0-2.174-1.025,4.231,4.231,0,0,0-1.671.359,7.566,7.566,0,0,0-1.61.943v6.491a7.683,7.683,0,0,0,1.41.5,6.094,6.094,0,0,0,1.338.133,3.086,3.086,0,0,0,2.512-1.087A4.941,4.941,0,0,0-26.886,19.186Zm12.141-3.538h-.1a7.063,7.063,0,0,0-.836-.149,8.609,8.609,0,0,0-.959-.046,3.968,3.968,0,0,0-1.723.395,7.934,7.934,0,0,0-1.6,1.02V25h-1.928V13.546h1.928v1.692a9.457,9.457,0,0,1,2.025-1.307,4.414,4.414,0,0,1,1.789-.385,7.24,7.24,0,0,1,.728.026q.226.026.677.1Zm11.577,3.63A6.427,6.427,0,0,1-4.6,23.7a4.882,4.882,0,0,1-3.845,1.62A4.89,4.89,0,0,1-12.31,23.7a6.442,6.442,0,0,1-1.43-4.419,6.462,6.462,0,0,1,1.43-4.425,4.883,4.883,0,0,1,3.861-1.625A4.874,4.874,0,0,1-4.6,14.854,6.447,6.447,0,0,1-3.168,19.278Zm-1.989,0a5.216,5.216,0,0,0-.872-3.307,2.935,2.935,0,0,0-2.42-1.082,2.943,2.943,0,0,0-2.435,1.082,5.239,5.239,0,0,0-.866,3.307,5.218,5.218,0,0,0,.872,3.266,2.913,2.913,0,0,0,2.43,1.113,2.916,2.916,0,0,0,2.415-1.1A5.189,5.189,0,0,0-5.158,19.278Zm8.542-7.649H1.21v-2H3.384ZM3.261,25.277a4.117,4.117,0,0,1-1.025,3.035A3.714,3.714,0,0,1-.513,29.337a9.352,9.352,0,0,1-1.082-.082,8.088,8.088,0,0,1-1.123-.205V27.215h.1q.287.113.774.256a3.347,3.347,0,0,0,.948.144A2.9,2.9,0,0,0,.3,27.41a1.416,1.416,0,0,0,.677-.615,2.673,2.673,0,0,0,.292-.99,12.612,12.612,0,0,0,.067-1.41V15.167H-1.056v-1.62H3.261Zm13.371-5.8H8.193a4.882,4.882,0,0,0,.318,1.841,3.4,3.4,0,0,0,2.138,2.025,5.05,5.05,0,0,0,1.615.246,6.383,6.383,0,0,0,2.353-.467A5.8,5.8,0,0,0,16.3,22.2h.1v2.1a15.905,15.905,0,0,1-1.989.687,8.071,8.071,0,0,1-2.133.277,6.144,6.144,0,0,1-4.45-1.543,5.808,5.808,0,0,1-1.6-4.384,6.3,6.3,0,0,1,1.533-4.46A5.248,5.248,0,0,1,11.8,13.229a4.634,4.634,0,0,1,3.573,1.354,5.445,5.445,0,0,1,1.256,3.845ZM14.755,18a3.408,3.408,0,0,0-.764-2.348,2.943,2.943,0,0,0-2.292-.831,3.343,3.343,0,0,0-2.466.913A3.544,3.544,0,0,0,8.193,18Zm13.269,6.286a12.437,12.437,0,0,1-1.83.718,6.456,6.456,0,0,1-1.841.256,6.824,6.824,0,0,1-2.276-.364,4.652,4.652,0,0,1-1.774-1.1,4.95,4.95,0,0,1-1.159-1.866,7.7,7.7,0,0,1-.41-2.635,6.085,6.085,0,0,1,1.543-4.409,5.4,5.4,0,0,1,4.076-1.6,6.864,6.864,0,0,1,1.933.277,10.107,10.107,0,0,1,1.738.677v2.143h-.1A7.334,7.334,0,0,0,26.1,15.32a4.981,4.981,0,0,0-1.83-.369,3.237,3.237,0,0,0-2.589,1.1,4.834,4.834,0,0,0-.948,3.235,4.844,4.844,0,0,0,.928,3.184,3.21,3.21,0,0,0,2.61,1.113,4.815,4.815,0,0,0,1.189-.154,5.2,5.2,0,0,0,1.087-.4,8.693,8.693,0,0,0,.79-.456q.369-.241.584-.415h.1Zm8.418.615a10.516,10.516,0,0,1-1.184.236,8.114,8.114,0,0,1-1.143.092,3.542,3.542,0,0,1-2.666-.943,4.235,4.235,0,0,1-.913-3.025V15.167h-1.3v-1.62h1.3V10.255h1.928v3.292h3.979v1.62H32.464v5.219q0,.9.041,1.41a2.3,2.3,0,0,0,.287.948,1.383,1.383,0,0,0,.62.6,2.913,2.913,0,0,0,1.2.19A3.774,3.774,0,0,0,35.6,23.4a6.948,6.948,0,0,0,.738-.231h.1Z" transform="translate(78.024 74.141)" fill="#f6f6f6"/>
  </g>
</svg>
