<svg id="LinkedIn" xmlns="http://www.w3.org/2000/svg" width="22.902" height="22.964" viewBox="0 0 22.902 22.964">
  <g id="Group_17" data-name="Group 17" transform="translate(0)">
    <g id="Group_16" data-name="Group 16">
      <rect id="Rectangle_58" data-name="Rectangle 58" width="5.122" height="15.788" transform="translate(0 7.176)" fill="#f6f6f6"/>
      <path id="Path_37" data-name="Path 37" d="M178.441,166.465c-.054-.017-.106-.036-.163-.052s-.137-.029-.208-.04a4.567,4.567,0,0,0-.919-.093,7.112,7.112,0,0,0-5.5,3.018V166.28h-5.122v15.788h5.122v-8.612s3.87-5.405,5.5-1.435v10.047h5.12V171.414a5.118,5.118,0,0,0-3.831-4.949Zm0,0" transform="translate(-159.369 -159.104)" fill="#f6f6f6"/>
      <path id="Path_38" data-name="Path 38" d="M22.408,19.262a2.5,2.5,0,1,1-2.5-2.512,2.508,2.508,0,0,1,2.5,2.512Zm0,0" transform="translate(-17.398 -16.75)" fill="#f6f6f6"/>
    </g>
  </g>
</svg>
