<svg xmlns="http://www.w3.org/2000/svg" width="22.969" height="18.613" viewBox="0 0 22.969 18.613">
  <path id="twitter-brands" d="M20.632,53.637c.015.2.015.408.015.612A13.3,13.3,0,0,1,7.252,67.644,13.289,13.289,0,0,1,.025,65.531a9.737,9.737,0,0,0,1.137.058,9.434,9.434,0,0,0,5.845-2.011,4.716,4.716,0,0,1-4.4-3.264,5.933,5.933,0,0,0,.889.073,4.977,4.977,0,0,0,1.239-.16,4.7,4.7,0,0,1-3.774-4.58v-.058a4.741,4.741,0,0,0,2.128.6,4.714,4.714,0,0,1-1.457-6.3,13.373,13.373,0,0,0,9.708,4.926,5.315,5.315,0,0,1-.117-1.078,4.711,4.711,0,0,1,8.145-3.219,9.265,9.265,0,0,0,2.988-1.137,4.7,4.7,0,0,1-2.069,2.594,9.444,9.444,0,0,0,2.711-.729,10.111,10.111,0,0,1-2.361,2.434Z" transform="translate(-0.025 -49.031)" fill="#f6f6f6"/>
</svg>
